<svg fill="none" height="16" viewBox="0 0 16 16" width="16" xmlns="http://www.w3.org/2000/svg"><path d="m8.00004 1.33334c1.81133 0 2.03736.00667 2.74796.04.71.03334 1.1934.14467 1.6187.31.44.16934.8107.39867 1.1813.76867.339.33326.6013.73639.7687 1.18133.1647.42467.2767.90867.31 1.61867.0313.71067.04.93667.04 2.748s-.0067 2.03729-.04 2.74799c-.0333.71-.1453 1.1933-.31 1.6187-.1669.4452-.4292.8484-.7687 1.1813-.3333.3389-.7364.6012-1.1813.7687-.4247.1646-.9087.2766-1.6187.31-.7106.0313-.93663.04-2.74796.04s-2.03733-.0067-2.748-.04c-.71-.0334-1.19333-.1454-1.61867-.31-.44511-.167-.84831-.4294-1.18133-.7687-.33906-.3332-.60138-.7363-.76867-1.1813-.16533-.4247-.27666-.9087-.31-1.6187-.03133-.7107-.04-.93666-.04-2.74799s.00667-2.03733.04-2.748c.03334-.71067.14467-1.19333.31-1.61867.16683-.44521.42921-.84845.76867-1.18133.33311-.33918.73629-.60151 1.18133-.76867.42534-.16533.908-.27666 1.61867-.31.71067-.03133.93667-.04 2.748-.04zm0 3.33334c-.88405 0-1.7319.35119-2.35702.97631s-.97631 1.47296-.97631 2.35702c0 .88405.35119 1.7319.97631 2.35699.62512.6252 1.47297.9763 2.35702.9763.88406 0 1.7319-.3511 2.35706-.9763.6251-.62509.9763-1.47294.9763-2.35699 0-.88406-.3512-1.7319-.9763-2.35702-.62516-.62512-1.473-.97631-2.35706-.97631zm4.33336-.16667c0-.22101-.0878-.43298-.2441-.58926s-.3682-.24407-.5893-.24407c-.221 0-.4329.08779-.5892.24407s-.2441.36825-.2441.58926.0878.43298.2441.58926.3682.24407.5892.24407c.2211 0 .433-.08779.5893-.24407s.2441-.36825.2441-.58926zm-4.33336 1.5c.53043 0 1.03914.21071 1.41421.58579.37508.37507.58575.88378.58575 1.41421s-.21067 1.03914-.58575 1.41421c-.37507.37508-.88378.58578-1.41421.58578s-1.03914-.2107-1.41421-.58578c-.37508-.37507-.58579-.88378-.58579-1.41421s.21071-1.03914.58579-1.41421c.37507-.37508.88378-.58579 1.41421-.58579z" fill="#001018"/></svg>